<svg xmlns="http://www.w3.org/2000/svg" viewBox="0 0 32 32" fill="none">
  <defs>
    <linearGradient id="a" x1="8" y1="5" x2="24" y2="27" gradientUnits="userSpaceOnUse">
      <stop stop-color="#DDFBFF"/>
      <stop offset=".5" stop-color="#86E1FF"/>
      <stop offset="1" stop-color="#A27CFF"/>
    </linearGradient>
  </defs>
  <path d="M10 7h12v5.2c0 4.3-2.6 7.1-6 7.1s-6-2.8-6-7.1V7Z" fill="#4E459B" fill-opacity=".72" stroke="url(#a)" stroke-width="1.5" stroke-linejoin="round"/>
  <path d="M10 9H6.8v1.6c0 2.9 1.8 4.8 4.5 5.2M22 9h3.2v1.6c0 2.9-1.8 4.8-4.5 5.2" stroke="#fff" stroke-width="1.3" stroke-linecap="round" stroke-linejoin="round"/>
  <path d="M16 19.3v4.1M11.5 26h9M13 23.4h6" stroke="#fff" stroke-width="1.5" stroke-linecap="round"/>
  <path d="m16 10.1 1.05 1.55 1.85.5-1.2 1.45.08 1.9-1.78-.63-1.78.63.08-1.9-1.2-1.45 1.85-.5L16 10.1Z" fill="url(#a)" stroke="#fff" stroke-width=".75" stroke-linejoin="round"/>
  <path d="M7.4 18.7c1.6 2.2 3.7 3.6 6.1 4M24.6 18.7c-1.6 2.2-3.7 3.6-6.1 4" stroke="url(#a)" stroke-width="1.05" stroke-linecap="round"/>
</svg>
