<svg xmlns="http://www.w3.org/2000/svg" width="72" height="72" viewBox="0 0 128 128" fill="none">
  <defs>
    <linearGradient id="g" x1="64" y1="26" x2="64" y2="102">
      <stop offset="0%" stop-color="#FFDDF3"/>
      <stop offset="100%" stop-color="#FF7AC8"/>
    </linearGradient>
    <filter id="shadow" x="-20%" y="-20%" width="140%" height="140%">
      <feDropShadow dx="0" dy="3" stdDeviation="2" flood-color="rgba(0,0,0,0.18)"/>
    </filter>
    <filter id="glow" x="-40%" y="-40%" width="180%" height="180%">
      <feGaussianBlur stdDeviation="6"/>
    </filter>
  </defs>

  <g opacity="0.34" filter="url(#glow)">
    <g fill="rgba(255,124,204,0.42)" stroke="rgba(255,124,204,0.42)" stroke-linecap="round" stroke-linejoin="round">
      <path d="M28 40c0-8 6-14 14-14h44c8 0 14 6 14 14v22c0 8-6 14-14 14H58L40 90V76h-2c-8 0-14-6-14-14z" fill="none" stroke-width="5"/><circle cx="50" cy="50" r="3"/><circle cx="64" cy="50" r="3"/><circle cx="78" cy="50" r="3"/>
    </g>
  </g>

  <g transform="translate(0 2)" opacity="0.18">
    <g fill="black" stroke="black" stroke-linecap="round" stroke-linejoin="round">
      <path d="M28 40c0-8 6-14 14-14h44c8 0 14 6 14 14v22c0 8-6 14-14 14H58L40 90V76h-2c-8 0-14-6-14-14z" fill="none" stroke-width="5"/><circle cx="50" cy="50" r="3"/><circle cx="64" cy="50" r="3"/><circle cx="78" cy="50" r="3"/>
    </g>
  </g>

  <g filter="url(#shadow)">
    <g fill="url(#g)" stroke="url(#g)" stroke-linecap="round" stroke-linejoin="round">
      <path d="M28 40c0-8 6-14 14-14h44c8 0 14 6 14 14v22c0 8-6 14-14 14H58L40 90V76h-2c-8 0-14-6-14-14z" fill="none" stroke-width="5"/><circle cx="50" cy="50" r="3"/><circle cx="64" cy="50" r="3"/><circle cx="78" cy="50" r="3"/>
    </g>
  </g>
</svg>